# xmcd
#
# Track frame offsets:
#	150
#	19522
#	35554
#	48981
#	66869
#	90094
#	106939
#	123293
#	141400
#	157786
#	172210
#	181020
#
# Disc length: 2656 seconds
#
# Revision: 0
# Processed by: cddbd v1.5.2PL0 Copyright (c) Steve Scherf et al.
# Submitted via: audiograbber 1.83.01
#
DISCID=900a5e0c
DTITLE=Francoise Hardy - Parentheses
DYEAR=2006
DGENRE=Chanson française
TTITLE0=Francoise Hardy et Alain Bashung - Que reste-t-il de nos amours ¿
TTITLE1=Francoise Hardy et Alain Delon - Modern style
TTITLE2=Francoise Hardy et Jacques Dutronc - Amour, toujours, tendresse, caress
TTITLE2=es ...
TTITLE3=Francoise Hardy et Julio Iglesias - Partir quand meme...
TTITLE4=Francoise Hardy et Ben Christophers - My beautiful demon
TTITLE5=Francoise Hardy et Alain Souchon - Soleil
TTITLE6=Francoise Hardy et Rodolphe Burger - Cet enfant que je t'avais fait
TTITLE7=Francoise Hardy et Henri Salvador - Le fou de la reine
TTITLE8=Francoise Hardy et Arthur H - Les sediments
TTITLE9=Francoise Hardy et Maurane - La rue du babouin
TTITLE10=Francoise Hardy et Helene Grimaud - La valse des regrets
TTITLE11=Francoise Hardy et Benjamin Biolay - Des lendemains qui chantent
EXTD=Duos
EXTT0=
EXTT1=
EXTT2=
EXTT3=
EXTT4=
EXTT5=
EXTT6=
EXTT7=
EXTT8=
EXTT9=
EXTT10=
EXTT11=
PLAYORDER=
